<!--?xml version="1.0" encoding="utf-8"?-->
<!-- Generator: Adobe Illustrator 18.1.1, SVG Export Plug-In . SVG Version: 6.00 Build 0)  -->

<svg version="1.1" id="_x31_0" xmlns="http://www.w3.org/2000/svg" xmlns:xlink="http://www.w3.org/1999/xlink" x="0px" y="0px" viewBox="0 0 512 512" style="width: 16px; height: 16px; opacity: 1;" xml:space="preserve">
<style type="text/css">
	.st0{fill:#374149;}
</style>
<g>
	<path class="st0" d="M392.742,368.889c-24.449-23.887-120.5-112.606-141.367-134.036c-20.863-21.43-13.473-23.465-29.141-67.046
		c-15.672-43.586-20.546-44.672-43.062-67.192C155.406,76.849,73.875,15.056,73.875,15.056s-4.149,4.149-9.668,9.668L166.543,127.06
		c3,3,3,7.836,0.019,10.817c-3,3-7.836,3-10.836,0L53.722,35.873l-0.214-0.219h-0.004l-0.114-0.113L42.492,46.439l-0.023,0.023l0,0
		l-0.114,0.117l102.337,102.333c3,3.003,3,7.835,0,10.836c-2.981,2.98-7.817,2.98-10.817-0.02L31.539,57.392L20.504,68.431
		l102.332,102.336c3.004,3,2.985,7.851,0,10.836c-3,3-7.832,3-10.832,0L10,79.599l-0.218-0.223l0,0l-0.114-0.109
		C4.149,84.783,0,88.935,0,88.935s63.805,83.543,85.558,105.293c22.516,22.52,23.626,27.371,67.207,43.043
		c43.586,15.668,45.602,8.297,67.031,29.164c21.43,20.863,110.149,116.914,134.036,141.367
		c23.886,24.45,71.195,72.325,77.742,78.871c6.546,6.543,22.335,18.954,40.906,0.863c18.086-18.566,5.68-34.359-0.867-40.902
		C465.071,440.088,417.196,392.775,392.742,368.889z" style="fill: rgb(75, 75, 75);"></path>
	<path class="st0" d="M202.489,298.4c-0.856-0.89-1.66-1.722-2.367-2.461c-0.008,0.023-0.012,0.05-0.024,0.078
		c-0.038-0.039-0.09-0.09-0.125-0.129c-2.035,6.098-3.613,12.121-4.894,18.144c-16.039,16.039-69.722,51.051-98.485,76.653
		c-58.43,52.027-73.34,80.714-63.851,96.754c1.71,2.879,3.871,4.875,6.226,6.442c0.359,0.238,0.707,0.5,1.078,0.707
		c1.062,0.594,2.175,1.05,3.343,1.402c0.383,0.113,0.782,0.199,1.18,0.285c1.301,0.293,2.633,0.496,4.05,0.504
		c0.016,0,0.028,0.004,0.043,0.004l0,0c0.156,0,0.321-0.035,0.473-0.039c2.149-0.039,4.414-0.41,6.789-1.09
		c0.394-0.114,0.794-0.242,1.195-0.371c2.438-0.797,4.973-1.902,7.606-3.34c0.09-0.05,0.176-0.09,0.266-0.141
		c5.879-3.25,12.141-7.898,18.723-14.304c29.066-28.462,87.043-86.286,148.633-148.028
		C219.989,316.381,209.286,305.24,202.489,298.4z" style="fill: rgb(75, 75, 75);"></path>
	<path class="st0" d="M468.474,25.295c-39.758,10.09-71.758,30.344-121.375,71.305c-19.051,15.738-54.965,48.867-87.418,89.523
		c0.602,2.41,1.203,4.594,1.73,6.629c3.317,12.649,3.317,12.649,11.52,21.082c6.023,6.172,18.976,18.598,34.71,33.43
		c50.074-50.222,95.626-96,122.356-122.73c24.473-24.469,59.707-59.786,71.078-71.078C522.458,32.072,512.895,13.849,468.474,25.295
		z" style="fill: rgb(75, 75, 75);"></path>
</g>
</svg>
